<?xml version="1.0" encoding="UTF-8" standalone="no"?>
<svg
   xmlns:dc="http://purl.org/dc/elements/1.1/"
   xmlns:cc="http://creativecommons.org/ns#"
   xmlns:rdf="http://www.w3.org/1999/02/22-rdf-syntax-ns#"
   xmlns:svg="http://www.w3.org/2000/svg"
   xmlns="http://www.w3.org/2000/svg"
   xmlns:xlink="http://www.w3.org/1999/xlink"
   xmlns:sodipodi="http://sodipodi.sourceforge.net/DTD/sodipodi-0.dtd"
   xmlns:inkscape="http://www.inkscape.org/namespaces/inkscape"
   version="1.1"
   viewBox="0 0 270 257"
   stroke-miterlimit="10"
   id="svg91"
   sodipodi:docname="sidecar-model.svg"
   width="270"
   height="257"
   style="fill:none;stroke:none;stroke-linecap:square;stroke-miterlimit:10"
   inkscape:version="0.92.3 (2405546, 2018-03-11)">
  <metadata
     id="metadata97">
    <rdf:RDF>
      <cc:Work
         rdf:about="">
        <dc:format>image/svg+xml</dc:format>
        <dc:type
           rdf:resource="http://purl.org/dc/dcmitype/StillImage" />
      </cc:Work>
    </rdf:RDF>
  </metadata>
  <defs
     id="defs95">
    <clipPath
       clipPathUnits="userSpaceOnUse"
       id="clipPath906">
      <rect
         style="opacity:0.50800003;fill:#6c6753"
         id="rect908"
         width="270"
         height="257"
         x="308"
         y="131" />
    </clipPath>
  </defs>
  <sodipodi:namedview
     pagecolor="#ffffff"
     bordercolor="#666666"
     borderopacity="1"
     objecttolerance="10"
     gridtolerance="10"
     guidetolerance="10"
     inkscape:pageopacity="0"
     inkscape:pageshadow="2"
     inkscape:window-width="1920"
     inkscape:window-height="1054"
     id="namedview93"
     showgrid="false"
     inkscape:zoom="1"
     inkscape:cx="172"
     inkscape:cy="118"
     inkscape:window-x="0"
     inkscape:window-y="0"
     inkscape:window-maximized="1"
     inkscape:current-layer="svg91" />
  <clipPath
     id="p.0">
    <path
       d="M 0,0 H 960 V 540 H 0 Z"
       id="path2"
       inkscape:connector-curvature="0"
       style="clip-rule:nonzero" />
  </clipPath>
  <g
     clip-path="url(#clipPath906)"
     id="g89"
     transform="translate(-308,-131)">
    <path
       d="M 0,0 H 960 V 540 H 0 Z"
       id="path5"
       inkscape:connector-curvature="0"
       style="fill:#ffffff;fill-rule:evenodd" />
    <g
       id="g9"
       style="filter:url(#shadowFilter-p.1)">
      <use
         xlink:href="#p.1"
         transform="translate(0,2)"
         id="use7"
         x="0"
         y="0"
         width="100%"
         height="100%" />
    </g>
    <defs
       id="defs24">
      <filter
         id="shadowFilter-p.1"
         filterUnits="userSpaceOnUse">
        <feGaussianBlur
           in="SourceAlpha"
           stdDeviation="2.0"
           result="blur"
           id="feGaussianBlur11" />
        <feComponentTransfer
           in="blur"
           id="feComponentTransfer21"
           style="color-interpolation-filters:sRGB">
          <feFuncR
             type="linear"
             slope="0"
             intercept="0.0"
             id="feFuncR13" />
          <feFuncG
             type="linear"
             slope="0"
             intercept="0.0"
             id="feFuncG15" />
          <feFuncB
             type="linear"
             slope="0"
             intercept="0.0"
             id="feFuncB17" />
          <feFuncA
             type="linear"
             slope="0.5"
             intercept="0"
             id="feFuncA19" />
        </feComponentTransfer>
      </filter>
    </defs>
    <g
       id="p.1">
      <path
         d="M 324.64304,161.51706 H 558.46979 V 369.64304 H 324.64304 Z"
         id="path26"
         inkscape:connector-curvature="0"
         style="fill:#d0e0e3;fill-rule:evenodd" />
      <path
         d="M 324.64304,161.51706 H 558.46979 V 369.64304 H 324.64304 Z"
         id="path28"
         inkscape:connector-curvature="0"
         style="fill-rule:evenodd;stroke:#595959;stroke-width:1;stroke-linecap:butt;stroke-linejoin:round" />
    </g>
    <path
       d="m 340.45145,209.5433 h 205.70078 v 26.92914 H 340.45145 Z"
       id="path31"
       inkscape:connector-curvature="0"
       style="fill:#ffffff;fill-rule:evenodd" />
    <path
       d="m 340.45145,209.5433 h 205.70078 v 26.92914 H 340.45145 Z"
       id="path33"
       inkscape:connector-curvature="0"
       style="fill-rule:evenodd;stroke:#595959;stroke-width:1;stroke-linecap:butt;stroke-linejoin:round" />
    <path
       d="M 374.71796,227.80788 V 218.261 h 6.90625 v 1.125 h -5.64063 v 2.92188 h 5.28125 v 1.125 h -5.28125 v 3.25 h 5.85938 v 1.125 z m 7.93665,0 2.53125,-3.59375 -2.34375,-3.3125 h 1.46875 l 1.0625,1.60937 q 0.29687,0.46875 0.48437,0.78125 0.28125,-0.4375 0.51563,-0.76562 l 1.17187,-1.625 h 1.40625 l -2.39062,3.25 2.5625,3.65625 h -1.4375 l -1.42188,-2.14063 -0.375,-0.59375 -1.8125,2.73438 z m 12.17968,-2.21875 1.20313,0.14062 q -0.28125,1.0625 -1.0625,1.65625 -0.76563,0.57813 -1.96875,0.57813 -1.51563,0 -2.40625,-0.9375 -0.89063,-0.9375 -0.89063,-2.60938 0,-1.75 0.89063,-2.70312 0.90625,-0.96875 2.34375,-0.96875 1.39062,0 2.26562,0.9375 0.875,0.9375 0.875,2.65625 0,0.10937 0,0.3125 h -5.15625 q 0.0625,1.14062 0.64063,1.75 0.57812,0.59375 1.4375,0.59375 0.65625,0 1.10937,-0.32813 0.45313,-0.34375 0.71875,-1.07812 z m -3.84375,-1.90625 h 3.85938 q -0.0781,-0.85938 -0.4375,-1.29688 -0.5625,-0.6875 -1.45313,-0.6875 -0.8125,0 -1.35937,0.54688 -0.54688,0.53125 -0.60938,1.4375 z m 11.03748,1.59375 1.15625,0.15625 q -0.1875,1.1875 -0.96875,1.85937 -0.78125,0.67188 -1.92188,0.67188 -1.40625,0 -2.28125,-0.92188 -0.85937,-0.9375 -0.85937,-2.65625 0,-1.125 0.375,-1.96875 0.375,-0.84375 1.125,-1.25 0.76562,-0.42187 1.65625,-0.42187 1.125,0 1.84375,0.57812 0.71875,0.5625 0.92187,1.60938 l -1.14062,0.17187 q -0.17188,-0.70312 -0.59375,-1.04687 -0.40625,-0.35938 -0.98438,-0.35938 -0.89062,0 -1.45312,0.64063 -0.54688,0.64062 -0.54688,2 0,1.40625 0.53125,2.03125 0.54688,0.625 1.40625,0.625 0.6875,0 1.14063,-0.42188 0.46875,-0.42187 0.59375,-1.29687 z m 6.67969,2.53125 v -1.01563 q -0.8125,1.17188 -2.1875,1.17188 -0.60938,0 -1.14063,-0.23438 -0.53125,-0.23437 -0.79687,-0.57812 -0.25,-0.35938 -0.35938,-0.875 -0.0625,-0.34375 -0.0625,-1.09375 v -4.28125 h 1.17188 v 3.82812 q 0,0.92188 0.0625,1.23438 0.10937,0.46875 0.46875,0.73437 0.35937,0.25 0.89062,0.25 0.51563,0 0.98438,-0.26562 0.46875,-0.26563 0.65625,-0.73438 0.1875,-0.46875 0.1875,-1.34375 v -3.70312 h 1.17187 v 6.90625 z m 5.44372,-1.04688 0.17188,1.03125 q -0.5,0.10938 -0.89063,0.10938 -0.64062,0 -1,-0.20313 -0.34375,-0.20312 -0.48437,-0.53125 -0.14063,-0.32812 -0.14063,-1.39062 v -3.96875 h -0.85937 v -0.90625 h 0.85937 v -1.71875 l 1.17188,-0.70313 v 2.42188 h 1.17187 v 0.90625 h -1.17187 v 4.04687 q 0,0.5 0.0469,0.64063 0.0625,0.14062 0.20313,0.23437 0.14062,0.0781 0.40625,0.0781 0.20312,0 0.51562,-0.0469 z m 5.87485,-1.17187 1.20312,0.14062 q -0.28125,1.0625 -1.0625,1.65625 -0.76562,0.57813 -1.96875,0.57813 -1.51562,0 -2.40625,-0.9375 -0.89062,-0.9375 -0.89062,-2.60938 0,-1.75 0.89062,-2.70312 0.90625,-0.96875 2.34375,-0.96875 1.39063,0 2.26563,0.9375 0.875,0.9375 0.875,2.65625 0,0.10937 0,0.3125 h -5.15625 q 0.0625,1.14062 0.64062,1.75 0.57813,0.59375 1.4375,0.59375 0.65625,0 1.10938,-0.32813 0.45312,-0.34375 0.71875,-1.07812 z m -3.84375,-1.90625 h 3.85937 q -0.0781,-0.85938 -0.4375,-1.29688 -0.5625,-0.6875 -1.45312,-0.6875 -0.8125,0 -1.35938,0.54688 -0.54687,0.53125 -0.60937,1.4375 z m 10.3811,4.125 V 218.261 h 3.59375 q 0.95313,0 1.45313,0.0937 0.70312,0.125 1.17187,0.45313 0.48438,0.32812 0.76563,0.92187 0.29687,0.59375 0.29687,1.29688 0,1.21875 -0.78125,2.0625 -0.76562,0.84375 -2.79687,0.84375 h -2.4375 v 3.875 z m 1.26563,-5 h 2.45312 q 1.23438,0 1.75,-0.45313 0.51563,-0.46875 0.51563,-1.28125 0,-0.60937 -0.3125,-1.03125 -0.29688,-0.42187 -0.79688,-0.5625 -0.3125,-0.0937 -1.17187,-0.0937 h -2.4375 z m 7.45224,5 v -6.90625 h 1.0625 v 1.04687 q 0.40625,-0.73437 0.73437,-0.96875 0.34375,-0.23437 0.76563,-0.23437 0.59375,0 1.20312,0.375 l -0.40625,1.07812 q -0.4375,-0.25 -0.85937,-0.25 -0.39063,0 -0.70313,0.23438 -0.29687,0.23437 -0.42187,0.64062 -0.20313,0.625 -0.20313,1.35938 v 3.625 z m 9.18838,-2.21875 1.20313,0.14062 q -0.28125,1.0625 -1.0625,1.65625 -0.76563,0.57813 -1.96875,0.57813 -1.51563,0 -2.40625,-0.9375 -0.89063,-0.9375 -0.89063,-2.60938 0,-1.75 0.89063,-2.70312 0.90625,-0.96875 2.34375,-0.96875 1.39062,0 2.26562,0.9375 0.875,0.9375 0.875,2.65625 0,0.10937 0,0.3125 h -5.15625 q 0.0625,1.14062 0.64063,1.75 0.57812,0.59375 1.4375,0.59375 0.65625,0 1.10937,-0.32813 0.45313,-0.34375 0.71875,-1.07812 z m -3.84375,-1.90625 h 3.85938 q -0.0781,-0.85938 -0.4375,-1.29688 -0.5625,-0.6875 -1.45313,-0.6875 -0.8125,0 -1.35937,0.54688 -0.54688,0.53125 -0.60938,1.4375 z m 6.06873,1.26562 v -1.1875 h 3.59375 v 1.1875 z m 7.4696,2.85938 V 219.386 h -3.14062 v -1.125 h 7.5625 v 1.125 h -3.15625 v 8.42188 z m 8.60102,-0.85938 q -0.65625,0.5625 -1.26563,0.79688 -0.59375,0.21875 -1.28125,0.21875 -1.14062,0 -1.75,-0.54688 -0.60937,-0.5625 -0.60937,-1.4375 0,-0.5 0.21875,-0.92187 0.23437,-0.42188 0.60937,-0.67188 0.375,-0.25 0.84375,-0.39062 0.34375,-0.0781 1.04688,-0.17188 1.42187,-0.17187 2.09375,-0.40625 0,-0.23437 0,-0.29687 0,-0.71875 -0.32813,-1.01563 -0.45312,-0.39062 -1.34375,-0.39062 -0.8125,0 -1.21875,0.29687 -0.39062,0.28125 -0.57812,1.01563 l -1.14063,-0.15625 q 0.15625,-0.73438 0.51563,-1.1875 0.35937,-0.45313 1.03125,-0.6875 0.67187,-0.25 1.5625,-0.25 0.89062,0 1.4375,0.20312 0.5625,0.20313 0.8125,0.53125 0.26562,0.3125 0.375,0.79688 0.0469,0.29687 0.0469,1.07812 v 1.5625 q 0,1.625 0.0781,2.0625 0.0781,0.4375 0.29687,0.82813 h -1.21875 q -0.1875,-0.35938 -0.23437,-0.85938 z m -0.0937,-2.60937 q -0.64063,0.26562 -1.92188,0.4375 -0.71875,0.10937 -1.01562,0.25 -0.29688,0.125 -0.46875,0.375 -0.15625,0.25 -0.15625,0.54687 0,0.46875 0.34375,0.78125 0.35937,0.3125 1.04687,0.3125 0.67188,0 1.20313,-0.29687 0.53125,-0.29688 0.78125,-0.8125 0.1875,-0.39063 0.1875,-1.17188 z m 2.52185,1.40625 1.15625,-0.1875 q 0.10937,0.70312 0.54687,1.07812 0.45313,0.35938 1.25,0.35938 0.8125,0 1.20313,-0.32813 0.39062,-0.32812 0.39062,-0.76562 0,-0.39063 -0.35937,-0.625 -0.23438,-0.15625 -1.1875,-0.39063 -1.29688,-0.32812 -1.79688,-0.5625 -0.48437,-0.25 -0.75,-0.65625 -0.25,-0.42187 -0.25,-0.9375 0,-0.45312 0.20313,-0.84375 0.21875,-0.40625 0.57812,-0.67187 0.28125,-0.1875 0.75,-0.32813 0.46875,-0.14062 1.01563,-0.14062 0.8125,0 1.42187,0.23437 0.60938,0.23438 0.90625,0.64063 0.29688,0.39062 0.40625,1.0625 l -1.14062,0.15625 q -0.0781,-0.53125 -0.45313,-0.82813 -0.375,-0.3125 -1.0625,-0.3125 -0.8125,0 -1.15625,0.26563 -0.34375,0.26562 -0.34375,0.625 0,0.23437 0.14063,0.42187 0.15625,0.1875 0.45312,0.3125 0.17188,0.0625 1.03125,0.29688 1.25,0.32812 1.73438,0.54687 0.5,0.20313 0.78125,0.60938 0.28125,0.40625 0.28125,1 0,0.59375 -0.34375,1.10937 -0.34375,0.51563 -1,0.79688 -0.64063,0.28125 -1.45313,0.28125 -1.34375,0 -2.04687,-0.5625 -0.70313,-0.5625 -0.90625,-1.65625 z m 7.14843,2.0625 V 218.261 h 1.17188 v 5.45313 l 2.76562,-2.8125 h 1.51563 l -2.64063,2.5625 2.90625,4.34375 h -1.4375 l -2.28125,-3.53125 -0.82812,0.79687 v 2.73438 z m 10.53891,0 V 218.261 h 1.26563 v 3.92188 h 4.95312 V 218.261 h 1.26563 v 9.54688 h -1.26563 v -4.5 h -4.95312 v 4.5 z m 9.00016,-3.45313 q 0,-1.92187 1.07812,-2.84375 0.89063,-0.76562 2.17188,-0.76562 1.42187,0 2.32812,0.9375 0.90625,0.92187 0.90625,2.57812 0,1.32813 -0.40625,2.09375 -0.39062,0.76563 -1.15625,1.1875 -0.76562,0.42188 -1.67187,0.42188 -1.45313,0 -2.35938,-0.92188 -0.89062,-0.9375 -0.89062,-2.6875 z m 1.20312,0 q 0,1.32813 0.57813,1.98438 0.59375,0.65625 1.46875,0.65625 0.875,0 1.45312,-0.65625 0.57813,-0.67188 0.57813,-2.03125 0,-1.28125 -0.59375,-1.9375 -0.57813,-0.65625 -1.4375,-0.65625 -0.875,0 -1.46875,0.65625 -0.57813,0.65625 -0.57813,1.98437 z m 6.20935,0 q 0,-1.92187 1.07813,-2.84375 0.89062,-0.76562 2.17187,-0.76562 1.42188,0 2.32813,0.9375 0.90625,0.92187 0.90625,2.57812 0,1.32813 -0.40625,2.09375 -0.39063,0.76563 -1.15625,1.1875 -0.76563,0.42188 -1.67188,0.42188 -1.45312,0 -2.35937,-0.92188 -0.89063,-0.9375 -0.89063,-2.6875 z m 1.20313,0 q 0,1.32813 0.57812,1.98438 0.59375,0.65625 1.46875,0.65625 0.875,0 1.45313,-0.65625 0.57812,-0.67188 0.57812,-2.03125 0,-1.28125 -0.59375,-1.9375 -0.57812,-0.65625 -1.4375,-0.65625 -0.875,0 -1.46875,0.65625 -0.57812,0.65625 -0.57812,1.98437 z m 6.66247,3.45313 V 218.261 h 1.17188 v 5.45313 l 2.76562,-2.8125 h 1.5156 l -2.6406,2.5625 2.90622,4.34375 h -1.43747 l -2.28125,-3.53125 -0.82812,0.79687 v 2.73438 z"
       id="path35"
       inkscape:connector-curvature="0"
       style="fill:#000000;fill-rule:nonzero" />
    <path
       d="m 340.45145,253.17477 h 205.70078 v 26.92914 H 340.45145 Z"
       id="path37"
       inkscape:connector-curvature="0"
       style="fill:#ffffff;fill-rule:evenodd" />
    <path
       d="m 340.45145,253.17477 h 205.70078 v 26.92914 H 340.45145 Z"
       id="path39"
       inkscape:connector-curvature="0"
       style="fill-rule:evenodd;stroke:#595959;stroke-width:1;stroke-linecap:butt;stroke-linejoin:round" />
    <path
       d="m 356.9349,271.43933 v -9.54688 h 4.23438 q 1.26562,0 1.92187,0.26563 0.67188,0.25 1.0625,0.90625 0.40625,0.65625 0.40625,1.4375 0,1.01562 -0.65625,1.71875 -0.65625,0.6875 -2.03125,0.875 0.5,0.25 0.76563,0.48437 0.54687,0.5 1.04687,1.26563 l 1.65625,2.59375 h -1.57812 l -1.26563,-1.98438 q -0.5625,-0.85937 -0.92187,-1.3125 -0.34375,-0.45312 -0.64063,-0.64062 -0.28125,-0.1875 -0.5625,-0.25 -0.21875,-0.0469 -0.70312,-0.0469 h -1.46875 v 4.23438 z m 1.26563,-5.32813 h 2.71875 q 0.85937,0 1.34375,-0.17187 0.48437,-0.1875 0.73437,-0.57813 0.26563,-0.39062 0.26563,-0.85937 0,-0.67188 -0.5,-1.10938 -0.48438,-0.4375 -1.54688,-0.4375 h -3.01562 z m 12.7189,5.32813 v -1.01563 q -0.8125,1.17188 -2.1875,1.17188 -0.60938,0 -1.14063,-0.23438 -0.53125,-0.23437 -0.79687,-0.57812 -0.25,-0.35938 -0.35938,-0.875 -0.0625,-0.34375 -0.0625,-1.09375 v -4.28125 h 1.17188 v 3.82812 q 0,0.92188 0.0625,1.23438 0.10937,0.46875 0.46875,0.73437 0.35937,0.25 0.89062,0.25 0.51563,0 0.98438,-0.26562 0.46875,-0.26563 0.65625,-0.73438 0.1875,-0.46875 0.1875,-1.34375 v -3.70312 h 1.17187 v 6.90625 z m 2.88122,0 v -6.90625 h 1.0625 v 0.98437 q 0.75,-1.14062 2.1875,-1.14062 0.625,0 1.15625,0.21875 0.53125,0.21875 0.78125,0.59375 0.26563,0.35937 0.375,0.85937 0.0625,0.32813 0.0625,1.14063 v 4.25 h -1.17187 v -4.20313 q 0,-0.71875 -0.14063,-1.0625 -0.14062,-0.35937 -0.48437,-0.5625 -0.34375,-0.21875 -0.8125,-0.21875 -0.75,0 -1.29688,0.46875 -0.54687,0.46875 -0.54687,1.79688 v 3.78125 z m 11.2092,0 v -9.54688 h 3.59375 q 1.09375,0 1.75,0.29688 0.65625,0.28125 1.03125,0.89062 0.375,0.60938 0.375,1.26563 0,0.60937 -0.34375,1.15625 -0.32812,0.53125 -0.98437,0.85937 0.85937,0.25 1.32812,0.875 0.46875,0.60938 0.46875,1.4375 0,0.67188 -0.29687,1.25 -0.28125,0.57813 -0.70313,0.89063 -0.40625,0.3125 -1.03125,0.46875 -0.625,0.15625 -1.54687,0.15625 z m 1.26563,-5.53125 h 2.0625 q 0.84375,0 1.20312,-0.10938 0.48438,-0.14062 0.71875,-0.46875 0.25,-0.34375 0.25,-0.84375 0,-0.46875 -0.23437,-0.82812 -0.21875,-0.35938 -0.64063,-0.5 -0.42187,-0.14063 -1.45312,-0.14063 h -1.90625 z m 0,4.40625 h 2.375 q 0.60937,0 0.85937,-0.0469 0.4375,-0.0781 0.73438,-0.25 0.29687,-0.1875 0.48437,-0.53125 0.1875,-0.35937 0.1875,-0.8125 0,-0.53125 -0.28125,-0.92187 -0.26562,-0.40625 -0.75,-0.5625 -0.48437,-0.15625 -1.40625,-0.15625 h -2.20312 z m 12.04602,0.26562 q -0.65625,0.5625 -1.26563,0.79688 -0.59375,0.21875 -1.28125,0.21875 -1.14062,0 -1.75,-0.54688 -0.60937,-0.5625 -0.60937,-1.4375 0,-0.5 0.21875,-0.92187 0.23437,-0.42188 0.60937,-0.67188 0.375,-0.25 0.84375,-0.39062 0.34375,-0.0781 1.04688,-0.17188 1.42187,-0.17187 2.09375,-0.40625 0,-0.23437 0,-0.29687 0,-0.71875 -0.32813,-1.01563 -0.45312,-0.39062 -1.34375,-0.39062 -0.8125,0 -1.21875,0.29687 -0.39062,0.28125 -0.57812,1.01563 l -1.14063,-0.15625 q 0.15625,-0.73438 0.51563,-1.1875 0.35937,-0.45313 1.03125,-0.6875 0.67187,-0.25 1.5625,-0.25 0.89062,0 1.4375,0.20312 0.5625,0.20313 0.8125,0.53125 0.26562,0.3125 0.375,0.79688 0.0469,0.29687 0.0469,1.07812 v 1.5625 q 0,1.625 0.0781,2.0625 0.0781,0.4375 0.29687,0.82813 h -1.21875 q -0.1875,-0.35938 -0.23437,-0.85938 z m -0.0937,-2.60937 q -0.64063,0.26562 -1.92188,0.4375 -0.71875,0.10937 -1.01562,0.25 -0.29688,0.125 -0.46875,0.375 -0.15625,0.25 -0.15625,0.54687 0,0.46875 0.34375,0.78125 0.35937,0.3125 1.04687,0.3125 0.67188,0 1.20313,-0.29687 0.53125,-0.29688 0.78125,-0.8125 0.1875,-0.39063 0.1875,-1.17188 z m 7.50622,0.9375 1.15625,0.15625 q -0.1875,1.1875 -0.96875,1.85937 -0.78125,0.67188 -1.92187,0.67188 -1.40625,0 -2.28125,-0.92188 -0.85938,-0.9375 -0.85938,-2.65625 0,-1.125 0.375,-1.96875 0.375,-0.84375 1.125,-1.25 0.76563,-0.42187 1.65625,-0.42187 1.125,0 1.84375,0.57812 0.71875,0.5625 0.92188,1.60938 l -1.14063,0.17187 q -0.17187,-0.70312 -0.59375,-1.04687 -0.40625,-0.35938 -0.98437,-0.35938 -0.89063,0 -1.45313,0.64063 -0.54687,0.64062 -0.54687,2 0,1.40625 0.53125,2.03125 0.54687,0.625 1.40625,0.625 0.6875,0 1.14062,-0.42188 0.46875,-0.42187 0.59375,-1.29687 z m 2.16407,2.53125 v -9.54688 h 1.17187 v 5.45313 l 2.76563,-2.8125 h 1.51562 l -2.64062,2.5625 2.90625,4.34375 h -1.4375 l -2.28125,-3.53125 -0.82813,0.79687 v 2.73438 z m 11.17968,0 v -1.01563 q -0.8125,1.17188 -2.1875,1.17188 -0.60937,0 -1.14062,-0.23438 -0.53125,-0.23437 -0.79688,-0.57812 -0.25,-0.35938 -0.35937,-0.875 -0.0625,-0.34375 -0.0625,-1.09375 v -4.28125 h 1.17187 v 3.82812 q 0,0.92188 0.0625,1.23438 0.10938,0.46875 0.46875,0.73437 0.35938,0.25 0.89063,0.25 0.51562,0 0.98437,-0.26562 0.46875,-0.26563 0.65625,-0.73438 0.1875,-0.46875 0.1875,-1.34375 v -3.70312 h 1.17188 v 6.90625 z m 2.88123,2.65625 v -9.5625 h 1.07812 v 0.89062 q 0.375,-0.53125 0.84375,-0.78125 0.48438,-0.26562 1.15625,-0.26562 0.875,0 1.54688,0.45312 0.6875,0.45313 1.03125,1.28125 0.34375,0.82813 0.34375,1.82813 0,1.04687 -0.375,1.90625 -0.375,0.84375 -1.10938,1.29687 -0.71875,0.45313 -1.53125,0.45313 -0.57812,0 -1.04687,-0.25 -0.46875,-0.25 -0.76563,-0.625 v 3.375 z m 1.0625,-6.07813 q 0,1.34375 0.53125,1.98438 0.54687,0.625 1.3125,0.625 0.78125,0 1.34375,-0.65625 0.5625,-0.65625 0.5625,-2.04688 0,-1.3125 -0.54688,-1.96875 -0.54687,-0.67187 -1.29687,-0.67187 -0.75,0 -1.32813,0.70312 -0.57812,0.70313 -0.57812,2.03125 z m 5.47497,3.57813 2.76563,-9.85938 h 0.9375 l -2.76563,9.85938 z m 4.74985,-0.15625 v -9.54688 h 4.23438 q 1.26562,0 1.92187,0.26563 0.67188,0.25 1.0625,0.90625 0.40625,0.65625 0.40625,1.4375 0,1.01562 -0.65625,1.71875 -0.65625,0.6875 -2.03125,0.875 0.5,0.25 0.76563,0.48437 0.54687,0.5 1.04687,1.26563 l 1.65625,2.59375 h -1.57812 l -1.26563,-1.98438 q -0.5625,-0.85937 -0.92187,-1.3125 -0.34375,-0.45312 -0.64063,-0.64062 -0.28125,-0.1875 -0.5625,-0.25 -0.21875,-0.0469 -0.70312,-0.0469 h -1.46875 v 4.23438 z m 1.26563,-5.32813 h 2.71875 q 0.85937,0 1.34375,-0.17187 0.48437,-0.1875 0.73437,-0.57813 0.26563,-0.39062 0.26563,-0.85937 0,-0.67188 -0.5,-1.10938 -0.48438,-0.4375 -1.54688,-0.4375 h -3.01562 z m 12.92202,3.10938 1.20313,0.14062 q -0.28125,1.0625 -1.0625,1.65625 -0.76563,0.57813 -1.96875,0.57813 -1.51563,0 -2.40625,-0.9375 -0.89063,-0.9375 -0.89063,-2.60938 0,-1.75 0.89063,-2.70312 0.90625,-0.96875 2.34375,-0.96875 1.39062,0 2.26562,0.9375 0.875,0.9375 0.875,2.65625 0,0.10937 0,0.3125 h -5.15625 q 0.0625,1.14062 0.64063,1.75 0.57812,0.59375 1.4375,0.59375 0.65625,0 1.10937,-0.32813 0.45313,-0.34375 0.71875,-1.07812 z m -3.84375,-1.90625 h 3.85938 q -0.0781,-0.85938 -0.4375,-1.29688 -0.5625,-0.6875 -1.45313,-0.6875 -0.8125,0 -1.35937,0.54688 -0.54688,0.53125 -0.60938,1.4375 z m 6.0531,2.0625 1.15625,-0.1875 q 0.10938,0.70312 0.54688,1.07812 0.45312,0.35938 1.25,0.35938 0.8125,0 1.20312,-0.32813 0.39063,-0.32812 0.39063,-0.76562 0,-0.39063 -0.35938,-0.625 -0.23437,-0.15625 -1.1875,-0.39063 -1.29687,-0.32812 -1.79687,-0.5625 -0.48438,-0.25 -0.75,-0.65625 -0.25,-0.42187 -0.25,-0.9375 0,-0.45312 0.20312,-0.84375 0.21875,-0.40625 0.57813,-0.67187 0.28125,-0.1875 0.75,-0.32813 0.46875,-0.14062 1.01562,-0.14062 0.8125,0 1.42188,0.23437 0.60937,0.23438 0.90625,0.64063 0.29687,0.39062 0.40625,1.0625 l -1.14063,0.15625 q -0.0781,-0.53125 -0.45312,-0.82813 -0.375,-0.3125 -1.0625,-0.3125 -0.8125,0 -1.15625,0.26563 -0.34375,0.26562 -0.34375,0.625 0,0.23437 0.14062,0.42187 0.15625,0.1875 0.45313,0.3125 0.17187,0.0625 1.03125,0.29688 1.25,0.32812 1.73437,0.54687 0.5,0.20313 0.78125,0.60938 0.28125,0.40625 0.28125,1 0,0.59375 -0.34375,1.10937 -0.34375,0.51563 -1,0.79688 -0.64062,0.28125 -1.45312,0.28125 -1.34375,0 -2.04688,-0.5625 -0.70312,-0.5625 -0.90625,-1.65625 z m 9.69532,1.01562 0.17187,1.03125 q -0.5,0.10938 -0.89062,0.10938 -0.64063,0 -1,-0.20313 -0.34375,-0.20312 -0.48438,-0.53125 -0.14062,-0.32812 -0.14062,-1.39062 v -3.96875 h -0.85938 v -0.90625 h 0.85938 v -1.71875 l 1.17187,-0.70313 v 2.42188 h 1.17188 v 0.90625 h -1.17188 v 4.04687 q 0,0.5 0.0469,0.64063 0.0625,0.14062 0.20312,0.23437 0.14063,0.0781 0.40625,0.0781 0.20313,0 0.51563,-0.0469 z m 0.703,-2.40625 q 0,-1.92187 1.07813,-2.84375 0.89062,-0.76562 2.17187,-0.76562 1.42188,0 2.32813,0.9375 0.90625,0.92187 0.90625,2.57812 0,1.32813 -0.40625,2.09375 -0.39063,0.76563 -1.15625,1.1875 -0.76563,0.42188 -1.67188,0.42188 -1.45312,0 -2.35937,-0.92188 -0.89063,-0.9375 -0.89063,-2.6875 z m 1.20313,0 q 0,1.32813 0.57812,1.98438 0.59375,0.65625 1.46875,0.65625 0.875,0 1.45313,-0.65625 0.57812,-0.67188 0.57812,-2.03125 0,-1.28125 -0.59375,-1.9375 -0.57812,-0.65625 -1.4375,-0.65625 -0.875,0 -1.46875,0.65625 -0.57812,0.65625 -0.57812,1.98437 z m 6.63122,3.45313 v -6.90625 h 1.0625 v 1.04687 q 0.40625,-0.73437 0.73438,-0.96875 0.34375,-0.23437 0.76562,-0.23437 0.59375,0 1.20313,0.375 l -0.40625,1.07812 q -0.4375,-0.25 -0.85938,-0.25 -0.39062,0 -0.70312,0.23438 -0.29688,0.23437 -0.42188,0.64062 -0.20312,0.625 -0.20312,1.35938 v 3.625 z m 9.18836,-2.21875 1.20312,0.14062 q -0.28125,1.0625 -1.0625,1.65625 -0.76562,0.57813 -1.96875,0.57813 -1.51562,0 -2.40625,-0.9375 -0.89062,-0.9375 -0.89062,-2.60938 0,-1.75 0.89062,-2.70312 0.90625,-0.96875 2.34375,-0.96875 1.39063,0 2.26563,0.9375 0.875,0.9375 0.875,2.65625 0,0.10937 0,0.3125 h -5.15625 q 0.0625,1.14062 0.64062,1.75 0.57813,0.59375 1.4375,0.59375 0.65625,0 1.10938,-0.32813 0.45312,-0.34375 0.71875,-1.07812 z m -3.84375,-1.90625 h 3.85937 q -0.0781,-0.85938 -0.4375,-1.29688 -0.5625,-0.6875 -1.45312,-0.6875 -0.8125,0 -1.35938,0.54688 -0.54687,0.53125 -0.60937,1.4375 z m 10.3811,4.125 v -9.54688 h 3.59375 q 0.95312,0 1.45312,0.0937 0.70313,0.125 1.17188,0.45313 0.48437,0.32812 0.76562,0.92187 0.29688,0.59375 0.29688,1.29688 0,1.21875 -0.78125,2.0625 -0.76563,0.84375 -2.79688,0.84375 h -2.4375 v 3.875 z m 1.26562,-5 h 2.45313 q 1.23437,0 1.75,-0.45313 0.51562,-0.46875 0.51562,-1.28125 0,-0.60937 -0.3125,-1.03125 -0.29687,-0.42187 -0.79687,-0.5625 -0.3125,-0.0937 -1.17188,-0.0937 h -2.4375 z m 7.45224,5 v -6.90625 h 1.0625 v 1.04687 q 0.40625,-0.73437 0.73438,-0.96875 0.34375,-0.23437 0.76562,-0.23437 0.59375,0 1.20313,0.375 l -0.40625,1.07812 q -0.4375,-0.25 -0.85938,-0.25 -0.39062,0 -0.70312,0.23438 -0.29688,0.23437 -0.42188,0.64062 -0.20312,0.625 -0.20312,1.35938 v 3.625 z m 4.01651,-3.45313 q 0,-1.92187 1.07813,-2.84375 0.89062,-0.76562 2.17187,-0.76562 1.42188,0 2.32813,0.9375 0.90625,0.92187 0.90625,2.57812 0,1.32813 -0.40625,2.09375 -0.39063,0.76563 -1.15625,1.1875 -0.76563,0.42188 -1.67188,0.42188 -1.45312,0 -2.35937,-0.92188 -0.89063,-0.9375 -0.89063,-2.6875 z m 1.20313,0 q 0,1.32813 0.57812,1.98438 0.59375,0.65625 1.46875,0.65625 0.875,0 1.45313,-0.65625 0.57812,-0.67188 0.57812,-2.03125 0,-1.28125 -0.59375,-1.9375 -0.57812,-0.65625 -1.4375,-0.65625 -0.875,0 -1.46875,0.65625 -0.57812,0.65625 -0.57812,1.98437 z m 11.16247,0.92188 1.15625,0.15625 q -0.1875,1.1875 -0.96875,1.85937 -0.78125,0.67188 -1.92187,0.67188 -1.40625,0 -2.28125,-0.92188 -0.85938,-0.9375 -0.85938,-2.65625 0,-1.125 0.375,-1.96875 0.375,-0.84375 1.125,-1.25 0.76563,-0.42187 1.65625,-0.42187 1.125,0 1.84375,0.57812 0.71875,0.5625 0.92188,1.60938 l -1.14063,0.17187 q -0.17187,-0.70312 -0.59375,-1.04687 -0.40625,-0.35938 -0.98437,-0.35938 -0.89063,0 -1.45313,0.64063 -0.54687,0.64062 -0.54687,2 0,1.40625 0.53125,2.03125 0.54687,0.625 1.40625,0.625 0.6875,0 1.14062,-0.42188 0.46875,-0.42187 0.59375,-1.29687 z m 6.88279,0.3125 1.20312,0.14062 q -0.28125,1.0625 -1.0625,1.65625 -0.76562,0.57813 -1.96875,0.57813 -1.51562,0 -2.40622,-0.9375 -0.89062,-0.9375 -0.89062,-2.60938 0,-1.75 0.89062,-2.70312 0.90622,-0.96875 2.34372,-0.96875 1.39063,0 2.26563,0.9375 0.875,0.9375 0.875,2.65625 0,0.10937 0,0.3125 h -5.15622 q 0.0625,1.14062 0.64059,1.75 0.57813,0.59375 1.4375,0.59375 0.65625,0 1.10938,-0.32813 0.45312,-0.34375 0.71875,-1.07812 z m -3.84372,-1.90625 h 3.85934 q -0.0781,-0.85938 -0.4375,-1.29688 -0.5625,-0.6875 -1.45312,-0.6875 -0.8125,0 -1.35938,0.54688 -0.54684,0.53125 -0.60934,1.4375 z m 6.05307,2.0625 1.15625,-0.1875 q 0.10937,0.70312 0.54687,1.07812 0.45313,0.35938 1.25,0.35938 0.8125,0 1.20313,-0.32813 0.39062,-0.32812 0.39062,-0.76562 0,-0.39063 -0.35937,-0.625 -0.23438,-0.15625 -1.1875,-0.39063 -1.29688,-0.32812 -1.79688,-0.5625 -0.48437,-0.25 -0.75,-0.65625 -0.25,-0.42187 -0.25,-0.9375 0,-0.45312 0.20313,-0.84375 0.21875,-0.40625 0.57812,-0.67187 0.28125,-0.1875 0.75,-0.32813 0.46875,-0.14062 1.01563,-0.14062 0.8125,0 1.42187,0.23437 0.60938,0.23438 0.90625,0.64063 0.29688,0.39062 0.40625,1.0625 l -1.14062,0.15625 q -0.0781,-0.53125 -0.45313,-0.82813 -0.375,-0.3125 -1.0625,-0.3125 -0.8125,0 -1.15625,0.26563 -0.34375,0.26562 -0.34375,0.625 0,0.23437 0.14063,0.42187 0.15625,0.1875 0.45312,0.3125 0.17188,0.0625 1.03125,0.29688 1.25,0.32812 1.73438,0.54687 0.5,0.20313 0.78125,0.60938 0.28125,0.40625 0.28125,1 0,0.59375 -0.34375,1.10937 -0.34375,0.51563 -1,0.79688 -0.64063,0.28125 -1.45313,0.28125 -1.34375,0 -2.04687,-0.5625 -0.70313,-0.5625 -0.90625,-1.65625 z m 6.66406,0 1.15625,-0.1875 q 0.10937,0.70312 0.54687,1.07812 0.45313,0.35938 1.25,0.35938 0.8125,0 1.20313,-0.32813 0.39062,-0.32812 0.39062,-0.76562 0,-0.39063 -0.35937,-0.625 -0.23438,-0.15625 -1.1875,-0.39063 -1.29688,-0.32812 -1.79688,-0.5625 -0.48437,-0.25 -0.75,-0.65625 -0.25,-0.42187 -0.25,-0.9375 0,-0.45312 0.20313,-0.84375 0.21875,-0.40625 0.57812,-0.67187 0.28125,-0.1875 0.75,-0.32813 0.46875,-0.14062 1.01563,-0.14062 0.8125,0 1.42187,0.23437 0.60938,0.23438 0.90625,0.64063 0.29688,0.39062 0.40625,1.0625 l -1.14062,0.15625 q -0.0781,-0.53125 -0.45313,-0.82813 -0.375,-0.3125 -1.0625,-0.3125 -0.8125,0 -1.15625,0.26563 -0.34375,0.26562 -0.34375,0.625 0,0.23437 0.14063,0.42187 0.15625,0.1875 0.45312,0.3125 0.17188,0.0625 1.03125,0.29688 1.25,0.32812 1.73438,0.54687 0.5,0.20313 0.78125,0.60938 0.28125,0.40625 0.28125,1 0,0.59375 -0.34375,1.10937 -0.34375,0.51563 -1,0.79688 -0.64063,0.28125 -1.45313,0.28125 -1.34375,0 -2.04687,-0.5625 -0.70313,-0.5625 -0.90625,-1.65625 z"
       id="path41"
       inkscape:connector-curvature="0"
       style="fill:#000000;fill-rule:nonzero" />
    <path
       d="m 340.45145,294.50006 h 205.70078 v 26.92911 H 340.45145 Z"
       id="path43"
       inkscape:connector-curvature="0"
       style="fill:#ffffff;fill-rule:evenodd" />
    <path
       d="m 340.45145,294.50006 h 205.70078 v 26.92911 H 340.45145 Z"
       id="path45"
       inkscape:connector-curvature="0"
       style="fill-rule:evenodd;stroke:#595959;stroke-width:1;stroke-linecap:butt;stroke-linejoin:round" />
    <path
       d="m 371.75363,312.76462 v -9.54688 h 6.90625 v 1.125 h -5.64063 v 2.92188 h 5.28125 v 1.125 h -5.28125 v 3.25 h 5.85938 v 1.125 z m 7.93661,0 2.53125,-3.59375 -2.34375,-3.3125 h 1.46875 l 1.0625,1.60937 q 0.29688,0.46875 0.48438,0.78125 0.28125,-0.4375 0.51562,-0.76562 l 1.17188,-1.625 h 1.40625 l -2.39063,3.25 2.5625,3.65625 h -1.4375 l -1.42187,-2.14063 -0.375,-0.59375 -1.8125,2.73438 z m 12.17969,-2.21875 1.20313,0.14062 q -0.28125,1.0625 -1.0625,1.65625 -0.76563,0.57813 -1.96875,0.57813 -1.51563,0 -2.40625,-0.9375 -0.89063,-0.9375 -0.89063,-2.60938 0,-1.75 0.89063,-2.70312 0.90625,-0.96875 2.34375,-0.96875 1.39062,0 2.26562,0.9375 0.875,0.9375 0.875,2.65625 0,0.10937 0,0.3125 h -5.15625 q 0.0625,1.14062 0.64063,1.75 0.57812,0.59375 1.4375,0.59375 0.65625,0 1.10937,-0.32813 0.45313,-0.34375 0.71875,-1.07812 z m -3.84375,-1.90625 h 3.85938 q -0.0781,-0.85938 -0.4375,-1.29688 -0.5625,-0.6875 -1.45313,-0.6875 -0.8125,0 -1.35937,0.54688 -0.54688,0.53125 -0.60938,1.4375 z m 11.03748,1.59375 1.15625,0.15625 q -0.1875,1.1875 -0.96875,1.85937 -0.78125,0.67188 -1.92188,0.67188 -1.40625,0 -2.28125,-0.92188 -0.85937,-0.9375 -0.85937,-2.65625 0,-1.125 0.375,-1.96875 0.375,-0.84375 1.125,-1.25 0.76562,-0.42187 1.65625,-0.42187 1.125,0 1.84375,0.57812 0.71875,0.5625 0.92187,1.60938 l -1.14062,0.17187 q -0.17188,-0.70312 -0.59375,-1.04687 -0.40625,-0.35938 -0.98438,-0.35938 -0.89062,0 -1.45312,0.64063 -0.54688,0.64062 -0.54688,2 0,1.40625 0.53125,2.03125 0.54688,0.625 1.40625,0.625 0.6875,0 1.14063,-0.42188 0.46875,-0.42187 0.59375,-1.29687 z m 6.67969,2.53125 v -1.01563 q -0.8125,1.17188 -2.1875,1.17188 -0.60938,0 -1.14063,-0.23438 -0.53125,-0.23437 -0.79687,-0.57812 -0.25,-0.35938 -0.35938,-0.875 -0.0625,-0.34375 -0.0625,-1.09375 v -4.28125 h 1.17188 v 3.82812 q 0,0.92188 0.0625,1.23438 0.10937,0.46875 0.46875,0.73437 0.35937,0.25 0.89062,0.25 0.51563,0 0.98438,-0.26562 0.46875,-0.26563 0.65625,-0.73438 0.1875,-0.46875 0.1875,-1.34375 v -3.70312 h 1.17187 v 6.90625 z m 5.44372,-1.04688 0.17188,1.03125 q -0.5,0.10938 -0.89063,0.10938 -0.64062,0 -1,-0.20313 -0.34375,-0.20312 -0.48437,-0.53125 -0.14063,-0.32812 -0.14063,-1.39062 v -3.96875 h -0.85937 v -0.90625 h 0.85937 v -1.71875 l 1.17188,-0.70313 v 2.42188 h 1.17187 v 0.90625 h -1.17187 v 4.04687 q 0,0.5 0.0469,0.64063 0.0625,0.14062 0.20313,0.23437 0.14062,0.0781 0.40625,0.0781 0.20312,0 0.51562,-0.0469 z m 5.87488,-1.17187 1.20312,0.14062 q -0.28125,1.0625 -1.0625,1.65625 -0.76562,0.57813 -1.96875,0.57813 -1.51562,0 -2.40625,-0.9375 -0.89062,-0.9375 -0.89062,-2.60938 0,-1.75 0.89062,-2.70312 0.90625,-0.96875 2.34375,-0.96875 1.39063,0 2.26563,0.9375 0.875,0.9375 0.875,2.65625 0,0.10937 0,0.3125 h -5.15625 q 0.0625,1.14062 0.64062,1.75 0.57813,0.59375 1.4375,0.59375 0.65625,0 1.10938,-0.32813 0.45312,-0.34375 0.71875,-1.07812 z m -3.84375,-1.90625 h 3.85937 q -0.0781,-0.85938 -0.4375,-1.29688 -0.5625,-0.6875 -1.45312,-0.6875 -0.8125,0 -1.35938,0.54688 -0.54687,0.53125 -0.60937,1.4375 z m 10.38107,4.125 v -9.54688 h 3.59375 q 0.95313,0 1.45313,0.0937 0.70312,0.125 1.17187,0.45313 0.48438,0.32812 0.76563,0.92187 0.29687,0.59375 0.29687,1.29688 0,1.21875 -0.78125,2.0625 -0.76562,0.84375 -2.79687,0.84375 h -2.4375 v 3.875 z m 1.26563,-5 h 2.45312 q 1.23438,0 1.75,-0.45313 0.51563,-0.46875 0.51563,-1.28125 0,-0.60937 -0.3125,-1.03125 -0.29688,-0.42187 -0.79688,-0.5625 -0.3125,-0.0937 -1.17187,-0.0937 h -2.4375 z m 7.03039,1.54687 q 0,-1.92187 1.07813,-2.84375 0.89062,-0.76562 2.17187,-0.76562 1.42188,0 2.32813,0.9375 0.90625,0.92187 0.90625,2.57812 0,1.32813 -0.40625,2.09375 -0.39063,0.76563 -1.15625,1.1875 -0.76563,0.42188 -1.67188,0.42188 -1.45312,0 -2.35937,-0.92188 -0.89063,-0.9375 -0.89063,-2.6875 z m 1.20313,0 q 0,1.32813 0.57812,1.98438 0.59375,0.65625 1.46875,0.65625 0.875,0 1.45313,-0.65625 0.57812,-0.67188 0.57812,-2.03125 0,-1.28125 -0.59375,-1.9375 -0.57812,-0.65625 -1.4375,-0.65625 -0.875,0 -1.46875,0.65625 -0.57812,0.65625 -0.57812,1.98437 z m 6.1781,1.39063 1.15625,-0.1875 q 0.10937,0.70312 0.54687,1.07812 0.45313,0.35938 1.25,0.35938 0.8125,0 1.20313,-0.32813 0.39062,-0.32812 0.39062,-0.76562 0,-0.39063 -0.35937,-0.625 -0.23438,-0.15625 -1.1875,-0.39063 -1.29688,-0.32812 -1.79688,-0.5625 -0.48437,-0.25 -0.75,-0.65625 -0.25,-0.42187 -0.25,-0.9375 0,-0.45312 0.20313,-0.84375 0.21875,-0.40625 0.57812,-0.67187 0.28125,-0.1875 0.75,-0.32813 0.46875,-0.14062 1.01563,-0.14062 0.8125,0 1.42187,0.23437 0.60938,0.23438 0.90625,0.64063 0.29688,0.39062 0.40625,1.0625 l -1.14062,0.15625 q -0.0781,-0.53125 -0.45313,-0.82813 -0.375,-0.3125 -1.0625,-0.3125 -0.8125,0 -1.15625,0.26563 -0.34375,0.26562 -0.34375,0.625 0,0.23437 0.14063,0.42187 0.15625,0.1875 0.45312,0.3125 0.17188,0.0625 1.03125,0.29688 1.25,0.32812 1.73438,0.54687 0.5,0.20313 0.78125,0.60938 0.28125,0.40625 0.28125,1 0,0.59375 -0.34375,1.10937 -0.34375,0.51563 -1,0.79688 -0.64063,0.28125 -1.45313,0.28125 -1.34375,0 -2.04687,-0.5625 -0.70313,-0.5625 -0.90625,-1.65625 z m 9.69531,1.01562 0.17188,1.03125 q -0.5,0.10938 -0.89063,0.10938 -0.64062,0 -1,-0.20313 -0.34375,-0.20312 -0.48437,-0.53125 -0.14063,-0.32812 -0.14063,-1.39062 v -3.96875 h -0.85937 v -0.90625 h 0.85937 v -1.71875 l 1.17188,-0.70313 v 2.42188 h 1.17187 v 0.90625 h -1.17187 v 4.04687 q 0,0.5 0.0469,0.64063 0.0625,0.14062 0.20313,0.23437 0.14062,0.0781 0.40625,0.0781 0.20312,0 0.51562,-0.0469 z m 0.68735,-1.8125 v -1.1875 h 3.59375 v 1.1875 z m 7.46963,2.85938 v -8.42188 h -3.14062 v -1.125 h 7.5625 v 1.125 h -3.15625 v 8.42188 z m 8.60099,-0.85938 q -0.65625,0.5625 -1.26563,0.79688 -0.59375,0.21875 -1.28125,0.21875 -1.14062,0 -1.75,-0.54688 -0.60937,-0.5625 -0.60937,-1.4375 0,-0.5 0.21875,-0.92187 0.23437,-0.42188 0.60937,-0.67188 0.375,-0.25 0.84375,-0.39062 0.34375,-0.0781 1.04688,-0.17188 1.42187,-0.17187 2.09375,-0.40625 0,-0.23437 0,-0.29687 0,-0.71875 -0.32813,-1.01563 -0.45312,-0.39062 -1.34375,-0.39062 -0.8125,0 -1.21875,0.29687 -0.39062,0.28125 -0.57812,1.01563 l -1.14063,-0.15625 q 0.15625,-0.73438 0.51563,-1.1875 0.35937,-0.45313 1.03125,-0.6875 0.67187,-0.25 1.5625,-0.25 0.89062,0 1.4375,0.20312 0.5625,0.20313 0.8125,0.53125 0.26562,0.3125 0.375,0.79688 0.0469,0.29687 0.0469,1.07812 v 1.5625 q 0,1.625 0.0781,2.0625 0.0781,0.4375 0.29687,0.82813 h -1.21875 q -0.1875,-0.35938 -0.23437,-0.85938 z m -0.0937,-2.60937 q -0.64063,0.26562 -1.92188,0.4375 -0.71875,0.10937 -1.01562,0.25 -0.29688,0.125 -0.46875,0.375 -0.15625,0.25 -0.15625,0.54687 0,0.46875 0.34375,0.78125 0.35937,0.3125 1.04687,0.3125 0.67188,0 1.20313,-0.29687 0.53125,-0.29688 0.78125,-0.8125 0.1875,-0.39063 0.1875,-1.17188 z m 2.52185,1.40625 1.15625,-0.1875 q 0.10937,0.70312 0.54687,1.07812 0.45313,0.35938 1.25,0.35938 0.8125,0 1.20313,-0.32813 0.39062,-0.32812 0.39062,-0.76562 0,-0.39063 -0.35937,-0.625 -0.23438,-0.15625 -1.1875,-0.39063 -1.29688,-0.32812 -1.79688,-0.5625 -0.48437,-0.25 -0.75,-0.65625 -0.25,-0.42187 -0.25,-0.9375 0,-0.45312 0.20313,-0.84375 0.21875,-0.40625 0.57812,-0.67187 0.28125,-0.1875 0.75,-0.32813 0.46875,-0.14062 1.01563,-0.14062 0.8125,0 1.42187,0.23437 0.60938,0.23438 0.90625,0.64063 0.29688,0.39062 0.40625,1.0625 l -1.14062,0.15625 q -0.0781,-0.53125 -0.45313,-0.82813 -0.375,-0.3125 -1.0625,-0.3125 -0.8125,0 -1.15625,0.26563 -0.34375,0.26562 -0.34375,0.625 0,0.23437 0.14063,0.42187 0.15625,0.1875 0.45312,0.3125 0.17188,0.0625 1.03125,0.29688 1.25,0.32812 1.73438,0.54687 0.5,0.20313 0.78125,0.60938 0.28125,0.40625 0.28125,1 0,0.59375 -0.34375,1.10937 -0.34375,0.51563 -1,0.79688 -0.64063,0.28125 -1.45313,0.28125 -1.34375,0 -2.04687,-0.5625 -0.70313,-0.5625 -0.90625,-1.65625 z m 7.14843,2.0625 v -9.54688 h 1.17188 v 5.45313 l 2.76562,-2.8125 h 1.51563 l -2.64063,2.5625 2.90625,4.34375 h -1.4375 l -2.28125,-3.53125 -0.82812,0.79687 v 2.73438 z m 10.53894,0 v -9.54688 h 1.26563 v 3.92188 h 4.95312 v -3.92188 h 1.26563 v 9.54688 h -1.26563 v -4.5 h -4.95312 v 4.5 z m 9.00016,-3.45313 q 0,-1.92187 1.07812,-2.84375 0.89063,-0.76562 2.17188,-0.76562 1.42187,0 2.32812,0.9375 0.90625,0.92187 0.90625,2.57812 0,1.32813 -0.40625,2.09375 -0.39062,0.76563 -1.15625,1.1875 -0.76562,0.42188 -1.67187,0.42188 -1.45313,0 -2.35938,-0.92188 -0.89062,-0.9375 -0.89062,-2.6875 z m 1.20312,0 q 0,1.32813 0.57813,1.98438 0.59375,0.65625 1.46875,0.65625 0.875,0 1.45312,-0.65625 0.57813,-0.67188 0.57813,-2.03125 0,-1.28125 -0.59375,-1.9375 -0.57813,-0.65625 -1.4375,-0.65625 -0.875,0 -1.46875,0.65625 -0.57813,0.65625 -0.57813,1.98437 z m 6.20935,0 q 0,-1.92187 1.07813,-2.84375 0.89062,-0.76562 2.17187,-0.76562 1.42188,0 2.32813,0.9375 0.90625,0.92187 0.90625,2.57812 0,1.32813 -0.40625,2.09375 -0.39063,0.76563 -1.15625,1.1875 -0.76563,0.42188 -1.67188,0.42188 -1.45312,0 -2.35937,-0.92188 -0.89063,-0.9375 -0.89063,-2.6875 z m 1.20313,0 q 0,1.32813 0.57812,1.98438 0.59375,0.65625 1.46875,0.65625 0.875,0 1.45313,-0.65625 0.57812,-0.67188 0.57812,-2.03125 0,-1.28125 -0.59375,-1.9375 -0.57812,-0.65625 -1.4375,-0.65625 -0.875,0 -1.46875,0.65625 -0.57812,0.65625 -0.57812,1.98437 z m 6.66247,3.45313 v -9.54688 h 1.17188 v 5.45313 l 2.76559,-2.8125 h 1.51563 l -2.64063,2.5625 2.90625,4.34375 h -1.4375 l -2.28125,-3.53125 -0.82809,0.79687 v 2.73438 z"
       id="path47"
       inkscape:connector-curvature="0"
       style="fill:#000000;fill-rule:nonzero" />
    <path
       d="m 443.30185,236.47244 v 16.69292"
       id="path49"
       inkscape:connector-curvature="0"
       style="fill:#000000;fill-opacity:0;fill-rule:evenodd" />
    <path
       d="m 443.30185,236.47244 v 10.69292"
       id="path51"
       inkscape:connector-curvature="0"
       style="fill-rule:evenodd;stroke:#595959;stroke-width:1;stroke-linecap:butt;stroke-linejoin:round" />
    <path
       d="m 441.65012,247.16536 1.65173,4.53809 1.65174,-4.53809 z"
       id="path53"
       inkscape:connector-curvature="0"
       style="fill:#595959;fill-rule:evenodd;stroke:#595959;stroke-width:1;stroke-linecap:butt" />
    <path
       d="m 443.30185,280.1039 v 14.39371"
       id="path55"
       inkscape:connector-curvature="0"
       style="fill:#000000;fill-opacity:0;fill-rule:evenodd" />
    <path
       d="m 443.30185,280.1039 v 8.39368"
       id="path57"
       inkscape:connector-curvature="0"
       style="fill-rule:evenodd;stroke:#595959;stroke-width:1;stroke-linecap:butt;stroke-linejoin:round" />
    <path
       d="m 441.65012,288.4976 1.65173,4.53812 1.65174,-4.53812 z"
       id="path59"
       inkscape:connector-curvature="0"
       style="fill:#595959;fill-rule:evenodd;stroke:#595959;stroke-width:1;stroke-linecap:butt" />
    <path
       d="m 409.51797,182.14699 c 0,-6.39259 15.17297,-11.57481 33.88977,-11.57481 v 0 c 18.7168,0 33.88977,5.18222 33.88977,11.57481 v 0 c 0,6.39258 -15.17297,11.5748 -33.88977,11.5748 v 0 c -18.7168,0 -33.88977,-5.18222 -33.88977,-11.5748 z"
       id="path61"
       inkscape:connector-curvature="0"
       style="fill:#ffffff;fill-rule:evenodd" />
    <path
       d="m 409.51797,182.14699 c 0,-6.39259 15.17297,-11.57481 33.88977,-11.57481 v 0 c 18.7168,0 33.88977,5.18222 33.88977,11.57481 v 0 c 0,6.39258 -15.17297,11.5748 -33.88977,11.5748 v 0 c -18.7168,0 -33.88977,-5.18222 -33.88977,-11.5748 z"
       id="path63"
       inkscape:connector-curvature="0"
       style="fill-rule:evenodd;stroke:#595959;stroke-width:1;stroke-linecap:butt;stroke-linejoin:round" />
    <path
       d="m 429.0378,183.88448 1.20312,-0.10938 q 0.0781,0.71875 0.39063,1.1875 0.3125,0.45313 0.95312,0.73438 0.65625,0.28125 1.46875,0.28125 0.71875,0 1.26563,-0.21875 0.5625,-0.21875 0.82812,-0.57813 0.26563,-0.375 0.26563,-0.82812 0,-0.45313 -0.26563,-0.78125 -0.25,-0.32813 -0.84375,-0.5625 -0.39062,-0.15625 -1.70312,-0.46875 -1.3125,-0.3125 -1.84375,-0.59375 -0.67188,-0.35938 -1.01563,-0.89063 -0.32812,-0.53125 -0.32812,-1.1875 0,-0.71875 0.40625,-1.34375 0.40625,-0.625 1.1875,-0.95312 0.79687,-0.32813 1.76562,-0.32813 1.04688,0 1.85938,0.34375 0.8125,0.34375 1.25,1.01563 0.4375,0.65625 0.46875,1.48437 l -1.20313,0.0937 q -0.10937,-0.90625 -0.67187,-1.35937 -0.5625,-0.46875 -1.65625,-0.46875 -1.14063,0 -1.67188,0.42187 -0.51562,0.42188 -0.51562,1.01563 0,0.51562 0.35937,0.84375 0.375,0.32812 1.90625,0.6875 1.54688,0.34375 2.10938,0.59375 0.84375,0.39062 1.23437,0.98437 0.39063,0.57813 0.39063,1.35938 0,0.75 -0.4375,1.4375 -0.42188,0.67187 -1.25,1.04687 -0.8125,0.35938 -1.82813,0.35938 -1.29687,0 -2.17187,-0.375 -0.875,-0.375 -1.375,-1.125 -0.5,-0.76563 -0.53125,-1.71875 z m 11.73352,2.01562 0.17188,1.03125 q -0.5,0.10938 -0.89063,0.10938 -0.64062,0 -1,-0.20313 -0.34375,-0.20312 -0.48437,-0.53125 -0.14063,-0.32812 -0.14063,-1.39062 v -3.96875 h -0.85937 v -0.90625 h 0.85937 v -1.71875 l 1.17188,-0.70313 v 2.42188 h 1.17187 v 0.90625 h -1.17187 v 4.04687 q 0,0.5 0.0469,0.64063 0.0625,0.14062 0.20313,0.23437 0.14062,0.0781 0.40625,0.0781 0.20312,0 0.51562,-0.0469 z m 5.6561,0.1875 q -0.65625,0.5625 -1.26563,0.79688 -0.59375,0.21875 -1.28125,0.21875 -1.14062,0 -1.75,-0.54688 -0.60937,-0.5625 -0.60937,-1.4375 0,-0.5 0.21875,-0.92187 0.23437,-0.42188 0.60937,-0.67188 0.375,-0.25 0.84375,-0.39062 0.34375,-0.0781 1.04688,-0.17188 1.42187,-0.17187 2.09375,-0.40625 0,-0.23437 0,-0.29687 0,-0.71875 -0.32813,-1.01563 -0.45312,-0.39062 -1.34375,-0.39062 -0.8125,0 -1.21875,0.29687 -0.39062,0.28125 -0.57812,1.01563 l -1.14063,-0.15625 q 0.15625,-0.73438 0.51563,-1.1875 0.35937,-0.45313 1.03125,-0.6875 0.67187,-0.25 1.5625,-0.25 0.89062,0 1.4375,0.20312 0.5625,0.20313 0.8125,0.53125 0.26562,0.3125 0.375,0.79688 0.0469,0.29687 0.0469,1.07812 v 1.5625 q 0,1.625 0.0781,2.0625 0.0781,0.4375 0.29687,0.82813 h -1.21875 q -0.1875,-0.35938 -0.23437,-0.85938 z m -0.0937,-2.60937 q -0.64063,0.26562 -1.92188,0.4375 -0.71875,0.10937 -1.01562,0.25 -0.29688,0.125 -0.46875,0.375 -0.15625,0.25 -0.15625,0.54687 0,0.46875 0.34375,0.78125 0.35937,0.3125 1.04687,0.3125 0.67188,0 1.20313,-0.29687 0.53125,-0.29688 0.78125,-0.8125 0.1875,-0.39063 0.1875,-1.17188 z m 2.97497,3.46875 v -6.90625 h 1.0625 v 1.04687 q 0.40625,-0.73437 0.73438,-0.96875 0.34375,-0.23437 0.76562,-0.23437 0.59375,0 1.20313,0.375 l -0.40625,1.07812 q -0.4375,-0.25 -0.85938,-0.25 -0.39062,0 -0.70312,0.23438 -0.29688,0.23437 -0.42188,0.64062 -0.20312,0.625 -0.20312,1.35938 v 3.625 z m 7.01651,-1.04688 0.17188,1.03125 q -0.5,0.10938 -0.89063,0.10938 -0.64062,0 -1,-0.20313 -0.34375,-0.20312 -0.48437,-0.53125 -0.14063,-0.32812 -0.14063,-1.39062 v -3.96875 h -0.85937 v -0.90625 h 0.85937 v -1.71875 l 1.17188,-0.70313 v 2.42188 h 1.17187 v 0.90625 h -1.17187 v 4.04687 q 0,0.5 0.0469,0.64063 0.0625,0.14062 0.20313,0.23437 0.14062,0.0781 0.40625,0.0781 0.20312,0 0.51562,-0.0469 z"
       id="path65"
       inkscape:connector-curvature="0"
       style="fill:#000000;fill-rule:nonzero" />
    <path
       d="m 411.12772,347.75592 v 0 c 0,-6.39261 14.27048,-11.57483 31.87399,-11.57483 v 0 c 17.60355,0 31.87403,5.18222 31.87403,11.57483 v 0 c 0,6.39258 -14.27048,11.5748 -31.87403,11.5748 v 0 c -17.60351,0 -31.87399,-5.18222 -31.87399,-11.5748 z"
       id="path67"
       inkscape:connector-curvature="0"
       style="fill:#ffffff;fill-rule:evenodd" />
    <path
       d="m 411.12772,347.75592 v 0 c 0,-6.39261 14.27048,-11.57483 31.87399,-11.57483 v 0 c 17.60355,0 31.87403,5.18222 31.87403,11.57483 v 0 c 0,6.39258 -14.27048,11.5748 -31.87403,11.5748 v 0 c -17.60351,0 -31.87399,-5.18222 -31.87399,-11.5748 z"
       id="path69"
       inkscape:connector-curvature="0"
       style="fill-rule:evenodd;stroke:#595959;stroke-width:1;stroke-linecap:butt;stroke-linejoin:round" />
    <path
       d="m 430.51025,352.5559 v -9.54688 h 6.90625 v 1.125 h -5.64063 v 2.92188 h 5.28125 v 1.125 h -5.28125 v 3.25 h 5.85938 v 1.125 z m 8.7179,0 v -6.90625 h 1.0625 v 0.98437 q 0.75,-1.14062 2.1875,-1.14062 0.625,0 1.15625,0.21875 0.53125,0.21875 0.78125,0.59375 0.26562,0.35937 0.375,0.85937 0.0625,0.32813 0.0625,1.14063 v 4.25 h -1.17188 v -4.20313 q 0,-0.71875 -0.14062,-1.0625 -0.14063,-0.35937 -0.48438,-0.5625 -0.34375,-0.21875 -0.8125,-0.21875 -0.75,0 -1.29687,0.46875 -0.54688,0.46875 -0.54688,1.79688 v 3.78125 z m 11.89685,0 v -0.875 q -0.65625,1.03125 -1.9375,1.03125 -0.8125,0 -1.51563,-0.45313 -0.6875,-0.45312 -1.07812,-1.26562 -0.375,-0.82813 -0.375,-1.89063 0,-1.03125 0.34375,-1.875 0.34375,-0.84375 1.03125,-1.28125 0.70312,-0.45312 1.54687,-0.45312 0.625,0 1.10938,0.26562 0.5,0.25 0.79687,0.67188 v -3.42188 h 1.17188 v 9.54688 z m -3.70313,-3.45313 q 0,1.32813 0.5625,1.98438 0.5625,0.65625 1.32813,0.65625 0.76562,0 1.29687,-0.625 0.53125,-0.625 0.53125,-1.90625 0,-1.42188 -0.54687,-2.07813 -0.54688,-0.67187 -1.34375,-0.67187 -0.78125,0 -1.3125,0.64062 -0.51563,0.625 -0.51563,2 z"
       id="path71"
       inkscape:connector-curvature="0"
       style="fill:#000000;fill-rule:nonzero" />
    <path
       d="m 443.40775,193.72179 -0.0945,15.81102"
       id="path73"
       inkscape:connector-curvature="0"
       style="fill:#000000;fill-opacity:0;fill-rule:evenodd" />
    <path
       d="m 443.40778,193.72179 -0.0587,9.81113"
       id="path75"
       inkscape:connector-curvature="0"
       style="fill-rule:evenodd;stroke:#595959;stroke-width:1;stroke-linecap:butt;stroke-linejoin:round" />
    <path
       d="m 441.69742,203.52304 1.6246,4.5479 1.67881,-4.52816 z"
       id="path77"
       inkscape:connector-curvature="0"
       style="fill:#595959;fill-rule:evenodd;stroke:#595959;stroke-width:1;stroke-linecap:butt" />
    <path
       d="m 443.30185,321.42917 -0.31497,14.74017"
       id="path79"
       inkscape:connector-curvature="0"
       style="fill:#000000;fill-opacity:0;fill-rule:evenodd" />
    <path
       d="m 443.30185,321.42917 -0.18683,8.74155"
       id="path81"
       inkscape:connector-curvature="0"
       style="fill-rule:evenodd;stroke:#595959;stroke-width:1;stroke-linecap:butt;stroke-linejoin:round" />
    <path
       d="m 441.46368,330.1354 1.55441,4.57236 1.74832,-4.50177 z"
       id="path83"
       inkscape:connector-curvature="0"
       style="fill:#595959;fill-rule:evenodd;stroke:#595959;stroke-width:1;stroke-linecap:butt" />
    <path
       d="m 339.9101,136.60841 h 212.94489 v 17.66928 H 339.9101 Z"
       id="path85"
       inkscape:connector-curvature="0"
       style="fill:#000000;fill-opacity:0;fill-rule:evenodd" />
    <path
       d="m 350.6091,148.28091 1.4375,-0.125 q 0.0937,0.85937 0.46875,1.42187 0.375,0.54688 1.15625,0.89063 0.78125,0.32812 1.75,0.32812 0.875,0 1.53125,-0.25 0.67187,-0.26562 0.98437,-0.70312 0.32813,-0.45313 0.32813,-0.98438 0,-0.54687 -0.3125,-0.9375 -0.3125,-0.40625 -1.03125,-0.6875 -0.45313,-0.17187 -2.03125,-0.54687 -1.57813,-0.39063 -2.21875,-0.71875 -0.8125,-0.4375 -1.21875,-1.0625 -0.40625,-0.64063 -0.40625,-1.4375 0,-0.85938 0.48437,-1.60938 0.5,-0.76562 1.4375,-1.15625 0.95313,-0.39062 2.10938,-0.39062 1.28125,0 2.25,0.42187 0.96875,0.40625 1.48437,1.20313 0.53125,0.79687 0.57813,1.79687 l -1.45313,0.10938 q -0.125,-1.07813 -0.79687,-1.625 -0.67188,-0.5625 -2,-0.5625 -1.375,0 -2,0.5 -0.625,0.5 -0.625,1.21875 0,0.60937 0.4375,1.01562 0.4375,0.39063 2.28125,0.8125 1.85937,0.42188 2.54687,0.73438 1,0.45312 1.46875,1.17187 0.48438,0.70313 0.48438,1.625 0,0.90625 -0.53125,1.71875 -0.51563,0.8125 -1.5,1.26563 -0.98438,0.45312 -2.20313,0.45312 -1.5625,0 -2.60937,-0.45312 -1.04688,-0.46875 -1.65625,-1.375 -0.59375,-0.90625 -0.625,-2.0625 z m 14.07812,2.42187 0.20313,1.25 q -0.59375,0.125 -1.0625,0.125 -0.76563,0 -1.1875,-0.23437 -0.42188,-0.25 -0.59375,-0.64063 -0.17188,-0.40625 -0.17188,-1.67187 v -4.76563 h -1.03125 v -1.09375 h 1.03125 v -2.0625 l 1.40625,-0.84375 v 2.90625 h 1.40625 v 1.09375 h -1.40625 v 4.84375 q 0,0.60938 0.0625,0.78125 0.0781,0.17188 0.25,0.28125 0.17188,0.0937 0.48438,0.0937 0.23437,0 0.60937,-0.0625 z m 6.78907,0.23438 q -0.78125,0.67187 -1.5,0.95312 -0.71875,0.26563 -1.54688,0.26563 -1.375,0 -2.10937,-0.67188 -0.73438,-0.67187 -0.73438,-1.70312 0,-0.60938 0.28125,-1.10938 0.28125,-0.51562 0.71875,-0.8125 0.45313,-0.3125 1.01563,-0.46875 0.42187,-0.10937 1.25,-0.20312 1.70312,-0.20313 2.51562,-0.48438 0,-0.29687 0,-0.375 0,-0.85937 -0.39062,-1.20312 -0.54688,-0.48438 -1.60938,-0.48438 -0.98437,0 -1.46875,0.35938 -0.46875,0.34375 -0.6875,1.21875 l -1.375,-0.1875 q 0.1875,-0.875 0.60938,-1.42188 0.4375,-0.54687 1.25,-0.82812 0.8125,-0.29688 1.875,-0.29688 1.0625,0 1.71875,0.25 0.67187,0.25 0.98437,0.625 0.3125,0.375 0.4375,0.95313 0.0781,0.35937 0.0781,1.29687 v 1.875 q 0,1.96875 0.0781,2.48438 0.0937,0.51562 0.35938,1 h -1.46875 q -0.21875,-0.4375 -0.28125,-1.03125 z m -0.10938,-3.14063 q -0.76562,0.3125 -2.29687,0.53125 -0.875,0.125 -1.23438,0.28125 -0.35937,0.15625 -0.5625,0.46875 -0.1875,0.29688 -0.1875,0.65625 0,0.5625 0.42188,0.9375 0.4375,0.375 1.25,0.375 0.8125,0 1.4375,-0.34375 0.64062,-0.35937 0.9375,-0.98437 0.23437,-0.46875 0.23437,-1.40625 z m 3.03906,1.6875 1.39063,-0.21875 q 0.10937,0.84375 0.64062,1.29688 0.54688,0.4375 1.5,0.4375 0.96875,0 1.4375,-0.39063 0.46875,-0.40625 0.46875,-0.9375 0,-0.46875 -0.40625,-0.75 -0.29687,-0.1875 -1.4375,-0.46875 -1.54687,-0.39062 -2.15625,-0.67187 -0.59375,-0.29688 -0.90625,-0.79688 -0.29687,-0.5 -0.29687,-1.10937 0,-0.5625 0.25,-1.03125 0.25,-0.46875 0.6875,-0.78125 0.32812,-0.25 0.89062,-0.40625 0.57813,-0.17188 1.21875,-0.17188 0.98438,0 1.71875,0.28125 0.73438,0.28125 1.07813,0.76563 0.35937,0.46875 0.5,1.28125 l -1.375,0.1875 q -0.0937,-0.64063 -0.54688,-1 -0.45312,-0.35938 -1.26562,-0.35938 -0.96875,0 -1.39063,0.32813 -0.40625,0.3125 -0.40625,0.73437 0,0.28125 0.17188,0.5 0.17187,0.21875 0.53125,0.375 0.21875,0.0781 1.25,0.35938 1.48437,0.39062 2.07812,0.65625 0.59375,0.25 0.92188,0.73437 0.34375,0.48438 0.34375,1.20313 0,0.70312 -0.42188,1.32812 -0.40625,0.60938 -1.1875,0.95313 -0.76562,0.34375 -1.73437,0.34375 -1.625,0 -2.46875,-0.67188 -0.84375,-0.67187 -1.07813,-2 z m 8.5625,2.48438 v -11.45313 h 1.40625 v 4.10938 q 0.98438,-1.14063 2.48438,-1.14063 0.92187,0 1.59375,0.35938 0.6875,0.35937 0.96875,1 0.29687,0.64062 0.29687,1.85937 v 5.26563 h -1.40625 v -5.26563 q 0,-1.04687 -0.45312,-1.53125 -0.45313,-0.48437 -1.29688,-0.48437 -0.625,0 -1.17187,0.32812 -0.54688,0.32813 -0.78125,0.89063 -0.23438,0.54687 -0.23438,1.51562 v 4.54688 z m 12.78125,-2.48438 1.39063,-0.21875 q 0.10937,0.84375 0.64062,1.29688 0.54688,0.4375 1.5,0.4375 0.96875,0 1.4375,-0.39063 0.46875,-0.40625 0.46875,-0.9375 0,-0.46875 -0.40625,-0.75 -0.29687,-0.1875 -1.4375,-0.46875 -1.54687,-0.39062 -2.15625,-0.67187 -0.59375,-0.29688 -0.90625,-0.79688 -0.29687,-0.5 -0.29687,-1.10937 0,-0.5625 0.25,-1.03125 0.25,-0.46875 0.6875,-0.78125 0.32812,-0.25 0.89062,-0.40625 0.57813,-0.17188 1.21875,-0.17188 0.98438,0 1.71875,0.28125 0.73438,0.28125 1.07813,0.76563 0.35937,0.46875 0.5,1.28125 l -1.375,0.1875 q -0.0937,-0.64063 -0.54688,-1 -0.45312,-0.35938 -1.26562,-0.35938 -0.96875,0 -1.39063,0.32813 -0.40625,0.3125 -0.40625,0.73437 0,0.28125 0.17188,0.5 0.17187,0.21875 0.53125,0.375 0.21875,0.0781 1.25,0.35938 1.48437,0.39062 2.07812,0.65625 0.59375,0.25 0.92188,0.73437 0.34375,0.48438 0.34375,1.20313 0,0.70312 -0.42188,1.32812 -0.40625,0.60938 -1.1875,0.95313 -0.76562,0.34375 -1.73437,0.34375 -1.625,0 -2.46875,-0.67188 -0.84375,-0.67187 -1.07813,-2 z m 8.5625,-7.35937 v -1.60938 h 1.40625 v 1.60938 z m 0,9.84375 v -8.29688 h 1.40625 v 8.29688 z m 8.92969,0 v -1.04688 q -0.78125,1.23438 -2.3125,1.23438 -1,0 -1.82812,-0.54688 -0.82813,-0.54687 -1.29688,-1.53125 -0.45312,-0.98437 -0.45312,-2.25 0,-1.25 0.40625,-2.25 0.42187,-1.01562 1.25,-1.54687 0.82812,-0.54688 1.85937,-0.54688 0.75,0 1.32813,0.3125 0.59375,0.3125 0.95312,0.82813 v -4.10938 h 1.40625 v 11.45313 z m -4.4375,-4.14063 q 0,1.59375 0.67188,2.39063 0.67187,0.78125 1.57812,0.78125 0.92188,0 1.5625,-0.75 0.65625,-0.76563 0.65625,-2.3125 0,-1.70313 -0.65625,-2.5 -0.65625,-0.79688 -1.625,-0.79688 -0.9375,0 -1.5625,0.76563 -0.625,0.76562 -0.625,2.42187 z m 13.63281,1.46875 1.45313,0.17188 q -0.34375,1.28125 -1.28125,1.98437 -0.92188,0.70313 -2.35938,0.70313 -1.82812,0 -2.89062,-1.125 -1.0625,-1.125 -1.0625,-3.14063 0,-2.09375 1.07812,-3.25 1.07813,-1.15625 2.79688,-1.15625 1.65625,0 2.70312,1.14063 1.0625,1.125 1.0625,3.17187 0,0.125 0,0.375 h -6.1875 q 0.0781,1.375 0.76563,2.10938 0.70312,0.71875 1.73437,0.71875 0.78125,0 1.32813,-0.40625 0.54687,-0.40625 0.85937,-1.29688 z m -4.60937,-2.28125 h 4.625 q -0.0937,-1.04687 -0.53125,-1.5625 -0.67188,-0.8125 -1.73438,-0.8125 -0.96875,0 -1.64062,0.65625 -0.65625,0.64063 -0.71875,1.71875 z m 13.24219,1.90625 1.39062,0.1875 q -0.23437,1.42188 -1.17187,2.23438 -0.92188,0.8125 -2.28125,0.8125 -1.70313,0 -2.75,-1.10938 -1.03125,-1.125 -1.03125,-3.20312 0,-1.34375 0.4375,-2.34375 0.45312,-1.01563 1.35937,-1.51563 0.92188,-0.5 1.98438,-0.5 1.35937,0 2.21875,0.6875 0.85937,0.67188 1.09375,1.9375 l -1.35938,0.20313 q -0.20312,-0.82813 -0.70312,-1.25 -0.48438,-0.42188 -1.1875,-0.42188 -1.0625,0 -1.73438,0.76563 -0.65625,0.75 -0.65625,2.40625 0,1.67187 0.64063,2.4375 0.64062,0.75 1.67187,0.75 0.82813,0 1.375,-0.5 0.5625,-0.51563 0.70313,-1.57813 z m 8,2.01563 q -0.78125,0.67187 -1.5,0.95312 -0.71875,0.26563 -1.54688,0.26563 -1.375,0 -2.10937,-0.67188 -0.73438,-0.67187 -0.73438,-1.70312 0,-0.60938 0.28125,-1.10938 0.28125,-0.51562 0.71875,-0.8125 0.45313,-0.3125 1.01563,-0.46875 0.42187,-0.10937 1.25,-0.20312 1.70312,-0.20313 2.51562,-0.48438 0,-0.29687 0,-0.375 0,-0.85937 -0.39062,-1.20312 -0.54688,-0.48438 -1.60938,-0.48438 -0.98437,0 -1.46875,0.35938 -0.46875,0.34375 -0.6875,1.21875 l -1.375,-0.1875 q 0.1875,-0.875 0.60938,-1.42188 0.4375,-0.54687 1.25,-0.82812 0.8125,-0.29688 1.875,-0.29688 1.0625,0 1.71875,0.25 0.67187,0.25 0.98437,0.625 0.3125,0.375 0.4375,0.95313 0.0781,0.35937 0.0781,1.29687 v 1.875 q 0,1.96875 0.0781,2.48438 0.0937,0.51562 0.35938,1 h -1.46875 q -0.21875,-0.4375 -0.28125,-1.03125 z m -0.10938,-3.14063 q -0.76562,0.3125 -2.29687,0.53125 -0.875,0.125 -1.23438,0.28125 -0.35937,0.15625 -0.5625,0.46875 -0.1875,0.29688 -0.1875,0.65625 0,0.5625 0.42188,0.9375 0.4375,0.375 1.25,0.375 0.8125,0 1.4375,-0.34375 0.64062,-0.35937 0.9375,-0.98437 0.23437,-0.46875 0.23437,-1.40625 z m 3.58594,4.17188 v -8.29688 h 1.26562 v 1.25 q 0.48438,-0.875 0.89063,-1.15625 0.40625,-0.28125 0.90625,-0.28125 0.70312,0 1.4375,0.45313 l -0.48438,1.29687 q -0.51562,-0.29687 -1.03125,-0.29687 -0.45312,0 -0.82812,0.28125 -0.35938,0.26562 -0.51563,0.76562 -0.23437,0.75 -0.23437,1.64063 v 4.34375 z m 4.28125,0.20312 3.32812,-11.85937 h 1.125 l -3.3125,11.85937 z m 5.50781,-10.04687 v -1.60938 h 1.40625 v 1.60938 z m 0,9.84375 v -8.29688 h 1.40625 v 8.29688 z m 3.55469,0 v -8.29688 h 1.26562 v 1.17188 q 0.90625,-1.35938 2.64063,-1.35938 0.75,0 1.375,0.26563 0.625,0.26562 0.9375,0.70312 0.3125,0.4375 0.4375,1.04688 0.0781,0.39062 0.0781,1.35937 v 5.10938 h -1.40625 v -5.04688 q 0,-0.85937 -0.17187,-1.28125 -0.15625,-0.4375 -0.57813,-0.6875 -0.40625,-0.25 -0.96875,-0.25 -0.90625,0 -1.5625,0.57813 -0.64062,0.5625 -0.64062,2.15625 v 4.53125 z m 8.89844,-9.84375 v -1.60938 h 1.40625 v 1.60938 z m 0,9.84375 v -8.29688 h 1.40625 v 8.29688 z m 6.61718,-1.26563 0.20313,1.25 q -0.59375,0.125 -1.0625,0.125 -0.76563,0 -1.1875,-0.23437 -0.42188,-0.25 -0.59375,-0.64063 -0.17188,-0.40625 -0.17188,-1.67187 v -4.76563 h -1.03125 v -1.09375 h 1.03125 v -2.0625 l 1.40625,-0.84375 v 2.90625 h 1.40625 v 1.09375 h -1.40625 v 4.84375 q 0,0.60938 0.0625,0.78125 0.0781,0.17188 0.25,0.28125 0.17188,0.0937 0.48438,0.0937 0.23437,0 0.60937,-0.0625 z m 0.83594,-2.17187 v -1.42188 h 4.3125 v 1.42188 z m 11.28125,0.39062 1.39063,0.1875 q -0.23438,1.42188 -1.17188,2.23438 -0.92187,0.8125 -2.28125,0.8125 -1.70312,0 -2.75,-1.10938 -1.03125,-1.125 -1.03125,-3.20312 0,-1.34375 0.4375,-2.34375 0.45313,-1.01563 1.35938,-1.51563 0.92187,-0.5 1.98437,-0.5 1.35938,0 2.21875,0.6875 0.85938,0.67188 1.09375,1.9375 l -1.35937,0.20313 q -0.20313,-0.82813 -0.70313,-1.25 -0.48437,-0.42188 -1.1875,-0.42188 -1.0625,0 -1.73437,0.76563 -0.65625,0.75 -0.65625,2.40625 0,1.67187 0.64062,2.4375 0.64063,0.75 1.67188,0.75 0.82812,0 1.375,-0.5 0.5625,-0.51563 0.70312,-1.57813 z m 2.0625,-1.10937 q 0,-2.29688 1.28125,-3.40625 1.07813,-0.92188 2.60938,-0.92188 1.71875,0 2.79687,1.125 1.09375,1.10938 1.09375,3.09375 0,1.59375 -0.48437,2.51563 -0.48438,0.92187 -1.40625,1.4375 -0.90625,0.5 -2,0.5 -1.73438,0 -2.8125,-1.10938 -1.07813,-1.125 -1.07813,-3.23437 z m 1.45313,0 q 0,1.59375 0.6875,2.39062 0.70312,0.79688 1.75,0.79688 1.04687,0 1.73437,-0.79688 0.70313,-0.79687 0.70313,-2.4375 0,-1.53125 -0.70313,-2.32812 -0.6875,-0.79688 -1.73437,-0.79688 -1.04688,0 -1.75,0.79688 -0.6875,0.78125 -0.6875,2.375 z m 7.97656,4.15625 v -8.29688 h 1.26562 v 1.17188 q 0.90625,-1.35938 2.64063,-1.35938 0.75,0 1.375,0.26563 0.625,0.26562 0.9375,0.70312 0.3125,0.4375 0.4375,1.04688 0.0781,0.39062 0.0781,1.35937 v 5.10938 h -1.40625 v -5.04688 q 0,-0.85937 -0.17187,-1.28125 -0.15625,-0.4375 -0.57813,-0.6875 -0.40625,-0.25 -0.96875,-0.25 -0.90625,0 -1.5625,0.57813 -0.64062,0.5625 -0.64062,2.15625 v 4.53125 z m 11.96094,-1.26563 0.20312,1.25 q -0.59375,0.125 -1.0625,0.125 -0.76562,0 -1.1875,-0.23437 -0.42187,-0.25 -0.59375,-0.64063 -0.17187,-0.40625 -0.17187,-1.67187 v -4.76563 h -1.03125 v -1.09375 h 1.03125 v -2.0625 l 1.40625,-0.84375 v 2.90625 h 1.40625 v 1.09375 h -1.40625 v 4.84375 q 0,0.60938 0.0625,0.78125 0.0781,0.17188 0.25,0.28125 0.17187,0.0937 0.48437,0.0937 0.23438,0 0.60938,-0.0625 z m 6.78909,0.23438 q -0.78125,0.67187 -1.5,0.95312 -0.71878,0.26563 -1.54691,0.26563 -1.375,0 -2.10937,-0.67188 -0.73438,-0.67187 -0.73438,-1.70312 0,-0.60938 0.28125,-1.10938 0.28125,-0.51562 0.71875,-0.8125 0.45313,-0.3125 1.01563,-0.46875 0.42187,-0.10937 1.25,-0.20312 1.70316,-0.20313 2.51566,-0.48438 0,-0.29687 0,-0.375 0,-0.85937 -0.39063,-1.20312 -0.54687,-0.48438 -1.60941,-0.48438 -0.98437,0 -1.46875,0.35938 -0.46875,0.34375 -0.6875,1.21875 l -1.375,-0.1875 q 0.1875,-0.875 0.60938,-1.42188 0.4375,-0.54687 1.25,-0.82812 0.8125,-0.29688 1.875,-0.29688 1.06253,0 1.71878,0.25 0.67188,0.25 0.98438,0.625 0.3125,0.375 0.4375,0.95313 0.0781,0.35937 0.0781,1.29687 v 1.875 q 0,1.96875 0.0781,2.48438 0.0937,0.51562 0.35937,1 h -1.46875 q -0.21875,-0.4375 -0.28125,-1.03125 z m -0.10937,-3.14063 q -0.76563,0.3125 -2.29691,0.53125 -0.875,0.125 -1.23438,0.28125 -0.35937,0.15625 -0.5625,0.46875 -0.1875,0.29688 -0.1875,0.65625 0,0.5625 0.42188,0.9375 0.4375,0.375 1.25,0.375 0.8125,0 1.43753,-0.34375 0.64063,-0.35937 0.9375,-0.98437 0.23438,-0.46875 0.23438,-1.40625 z m 3.60156,-5.67187 v -1.60938 h 1.40625 v 1.60938 z m 0,9.84375 v -8.29688 h 1.40625 v 8.29688 z m 3.55469,0 v -8.29688 h 1.26562 v 1.17188 q 0.90625,-1.35938 2.64063,-1.35938 0.75,0 1.375,0.26563 0.625,0.26562 0.9375,0.70312 0.3125,0.4375 0.4375,1.04688 0.0781,0.39062 0.0781,1.35937 v 5.10938 h -1.40625 v -5.04688 q 0,-0.85937 -0.17187,-1.28125 -0.15625,-0.4375 -0.57813,-0.6875 -0.40625,-0.25 -0.96875,-0.25 -0.90625,0 -1.5625,0.57813 -0.64062,0.5625 -0.64062,2.15625 v 4.53125 z m 14.57031,-2.67188 1.45312,0.17188 q -0.34375,1.28125 -1.28125,1.98437 -0.92187,0.70313 -2.35937,0.70313 -1.82813,0 -2.89063,-1.125 -1.0625,-1.125 -1.0625,-3.14063 0,-2.09375 1.07813,-3.25 1.07812,-1.15625 2.79687,-1.15625 1.65625,0 2.70313,1.14063 1.0625,1.125 1.0625,3.17187 0,0.125 0,0.375 h -6.1875 q 0.0781,1.375 0.76562,2.10938 0.70313,0.71875 1.73438,0.71875 0.78125,0 1.32812,-0.40625 0.54688,-0.40625 0.85938,-1.29688 z m -4.60938,-2.28125 h 4.625 q -0.0937,-1.04687 -0.53125,-1.5625 -0.67187,-0.8125 -1.73437,-0.8125 -0.96875,0 -1.64063,0.65625 -0.65625,0.64063 -0.71875,1.71875 z m 7.82032,4.95313 v -8.29688 h 1.26562 v 1.25 q 0.48438,-0.875 0.89063,-1.15625 0.40625,-0.28125 0.90625,-0.28125 0.70312,0 1.4375,0.45313 l -0.48438,1.29687 q -0.51562,-0.29687 -1.03125,-0.29687 -0.45312,0 -0.82812,0.28125 -0.35938,0.26562 -0.51563,0.76562 -0.23437,0.75 -0.23437,1.64063 v 4.34375 z"
       id="path87"
       inkscape:connector-curvature="0"
       style="fill:#000000;fill-rule:nonzero" />
  </g>
</svg>
